<svg id="layer" xmlns="http://www.w3.org/2000/svg" viewBox="0 0 338.7 98.28"><defs><style>.cls-1{fill:#fff;}.cls-2{fill:#020203;}</style></defs><path class="cls-1" d="M100,.36,99.64,0H.36L0,.32V97.91l.32.37H99.59l.36-.37Z"/><path class="cls-2" d="M148.7,65.79c0-3.34-1.37-5.31-5.15-5.31h-3.34l-.17.16V71l.17.17h3.34c3.78-.06,5.15-2,5.15-5.37m-2.14,0c0,2.47-.77,3.51-2.9,3.51h-1.37l-.17-.17V62.45l.17-.16h1.37c2.13,0,2.9,1.09,2.9,3.5M159.21,71V69.46l-.16-.16h-5l-.16-.17V66.72l.16-.16h4.71l.16-.17V64.86l-.16-.16H154l-.16-.17V62.4l.16-.17h5l.16-.16V60.53l-.16-.16h-7.12l-.17.16V70.89l.17.16h7.12Zm16.87-2.73a2.35,2.35,0,0,0-1.8-2.58v-.22a2.21,2.21,0,0,0,1.53-2.3,2.71,2.71,0,0,0-3-2.74h-4.88l-.16.17V70.94l.16.16h5.15a2.73,2.73,0,0,0,3-2.84m-2.46-4.77a1.12,1.12,0,0,1-1.21,1.21H170l-.16-.17V62.4l.16-.17h2.41c.93.06,1.21.49,1.21,1.26m.33,4.44c0,.93-.44,1.37-1.54,1.37H170l-.16-.17V66.72l.16-.16h2.41c1.1,0,1.54.44,1.54,1.37M187.31,71V69.46l-3.5-8.82-.17-.16h-2l-.16.16L178,69.46V71l.16.17h1.37l.17-.17.77-2,.32-.16h3.78l.33.16.77,2,.16.17h1.37Zm-3.18-4.16L184,67H181.4l-.17-.17,1.37-3.67h.17Zm14.74-3.17c0-2.14-1.53-3.18-3.67-3.18h-5l-.16.16V71l.16.17H192l.17-.17V67.05l.16-.16h1.53l.33.16L197.28,71l.33.17h.93l.16-.17V69.46l-2-2.57v-.17a3.06,3.06,0,0,0,2.14-3.06m-2.14,0c0,1-.6,1.36-1.53,1.36h-2.9l-.17-.16V62.45l.17-.16h2.9c.93,0,1.53.32,1.53,1.37m9.75,5.8c-2.13,0-3.07-1.53-3.07-3.67s.94-3.67,3.07-3.67a2.14,2.14,0,0,1,2.3,1.37l.17.17h1.8l.17-.17c-.33-2-2-3.18-4.44-3.18-3.34,0-5.15,2.3-5.15,5.48s1.81,5.48,5.15,5.48c2.41,0,4.11-1.21,4.44-3.34l-.17-.17H209l-.17.17a2.13,2.13,0,0,1-2.3,1.53M221.38,71V69.46l-.16-.16h-5l-.17-.17V66.72l.17-.16h4.71l.16-.17V64.86l-.16-.16h-4.71l-.17-.17V62.4l.17-.17h5l.16-.16V60.53l-.16-.16H214l-.16.16V70.89l.16.16h7.18Zm10.52,0V69.46l-.17-.16H227l-.16-.17V60.64l-.17-.16h-1.8l-.17.16V71l.17.17h6.84Zm9.91-5.2c0,2.14-1,3.67-3.07,3.67s-3-1.53-3-3.67,1-3.67,3-3.67,3.07,1.54,3.07,3.67m2.08,0c0-3.18-2-5.48-5.2-5.48s-5.15,2.3-5.15,5.48,2,5.48,5.15,5.48,5.2-2.3,5.2-5.48M247,60.64V71l.16.17h1.81l.17-.17V64h.16l4.11,7,.33.17h2.13L256,71V60.64l-.17-.16H254l-.16.16v7h-.16l-4.11-7-.28-.16h-2.13Zm21,10.35V69.46l-3.51-8.82-.16-.16h-2l-.17.16-3.5,8.82V71l.16.17h1.37l.16-.17.77-2,.33-.16h3.78l.27.16.77,2,.16.17h1.37Zm-3.18-4.16-.16.17H262l-.16-.17,1.37-3.67h.16Z"/><path class="cls-2" d="M148.7,48c0-3.34-1.37-5.31-5.15-5.31h-3.34l-.17.16V53.19l.17.17h3.34c3.78-.06,5.15-2,5.15-5.37m-2.14,0c0,2.41-.77,3.51-2.9,3.51h-1.37l-.17-.17V44.65l.17-.17h1.37c2.13,0,2.9,1.05,2.9,3.51M154,44.92V42.79l-.16-.17h-2.14l-.16.17v2l.16.16h.44l.16.17v.16l-.93,1.54v.32h.93l.33-.16,1.21-1.53Zm10.68,8.22V51.61l-3.5-8.82-.17-.17h-2l-.17.17-3.5,8.82v1.53l.16.16h1.37l.17-.16.76-2,.33-.17H162l.33.17.77,2,.16.16h1.37ZM161.46,49l-.17.17h-2.57l-.16-.17,1.37-3.67h.16Zm14.79-3.18c0-2.13-1.54-3.17-3.67-3.17h-5l-.17.16V53.19l.17.17h1.81l.16-.17V49.25l.16-.16h1.54l.33.16,3.06,3.94.33.17h.93l.17-.17V51.66l-2-2.57v-.17a3.16,3.16,0,0,0,2.19-3.07m-2.14,0c0,1-.6,1.37-1.53,1.37h-2.91l-.16-.16V44.65l.16-.17h2.91c.93,0,1.53.33,1.53,1.37M187,44.32V42.79l-.17-.17h-8.54l-.17.17v1.53l.17.16h3.07l.16.17v8.54l.16.17h1.81l.17-.17V44.65l.16-.17h3.07Zm12.16,7.29c-2.14,0-3-1.54-3-3.67s.94-3.67,3-3.67a2.14,2.14,0,0,1,2.3,1.36l.16.17h1.81l.16-.17c-.27-2-2-3.17-4.38-3.17-3.34,0-5.15,2.3-5.15,5.48s1.81,5.47,5.15,5.47c2.41,0,4.11-1.2,4.38-3.34l-.16-.16h-1.81l-.16.16a2.09,2.09,0,0,1-2.3,1.54M214.26,48c0,2.14-1,3.67-3.07,3.67s-3.06-1.53-3.06-3.67,1-3.67,3.06-3.67,3.07,1.53,3.07,3.67m2.14,0c0-3.18-2-5.48-5.21-5.48S206,44.81,206,48s2,5.48,5.15,5.48,5.21-2.3,5.21-5.48m3-5.2V53.14l.16.16h1.87l.16-.16v-7h.16l4.11,7,.33.16h2.14l.16-.16V42.79l-.16-.17h-1.81l-.17.17v7h-.16l-4.11-7-.33-.17h-2.13ZM240,44.32V42.79l-.17-.17h-8.49l-.16.17v1.53l.16.16h3.07l.17.17v8.54l.16.17h1.81l.16-.17V44.65l.17-.17h3.06Zm10.19,8.82V51.61l-.17-.17h-5l-.17-.16V48.87l.17-.17h4.71l.16-.16V47l-.16-.16H245l-.17-.16v-2l.17-.17h5l.16-.16V42.79l-.16-.17h-7.12l-.17.17V53.14l.17.16H250Zm14.78,0V42.79l-.16-.17h-2.3l-.16.17-3.07,7.45h-.17L256,42.79l-.17-.17h-2.3l-.16.17V53.14l.16.16h1.81l.16-.16V47.22h.17l2.41,5.92.16.16h1.7l.16-.16,2.47-5.92h.16v5.92l.17.16h1.81Zm12.44-7.29c0-2.13-1.54-3.17-3.67-3.17h-5l-.17.16V53.19l.17.17h1.81l.16-.17V49.25l.17-.16h2.9c2.19-.06,3.67-1.1,3.67-3.24m-2.14,0c0,1-.6,1.37-1.53,1.37h-2.9l-.17-.16V44.65l.17-.17h2.9c.93,0,1.53.33,1.53,1.37M287.71,48c0,2.14-1,3.67-3,3.67s-3.07-1.53-3.07-3.67,1-3.67,3.07-3.67,3,1.53,3,3.67m2.14,0c0-3.18-2-5.48-5.15-5.48s-5.21,2.3-5.21,5.48,2,5.48,5.21,5.48,5.15-2.3,5.15-5.48m11.88-2.14c0-2.13-1.53-3.17-3.67-3.17h-5l-.16.16V53.19l.16.17h1.81l.16-.17V49.25l.17-.16h1.53l.33.16,3.07,3.94.33.17h.93l.16-.17V51.66l-2-2.57v-.17a3.15,3.15,0,0,0,2.19-3.07m-2.13,0c0,1-.61,1.37-1.54,1.37h-2.9l-.17-.16V44.65l.17-.17h2.9c.93,0,1.54.33,1.54,1.37m13.52,7.29V51.61l-3.5-8.82-.17-.17h-2l-.16.17-3.51,8.82v1.53l.17.16h1.37l.16-.16.77-2,.33-.17h3.78l.32.17.77,2,.17.16H313ZM310,49l-.17.17h-2.57L307,49l1.37-3.67h.17Zm5.91-6.24V53.14l.17.16h1.81l.16-.16v-7h.16l4.11,7,.33.16h2.14l.16-.16V42.79l-.16-.17h-1.81l-.17.17v7h-.16l-4.11-7-.33-.17H316ZM330.6,53.14V42.79l-.17-.17h-1.8l-.17.17V53.14l.17.16h1.8Z"/><path class="cls-2" d="M151.44,35.34V25l-.17-.17H149l-.16.17-3.07,7.44h-.17L142.51,25l-.17-.17H140l-.16.17V35.34l.16.16h1.81l.16-.16V29.42h.17l2.57,5.92.17.16h1.7l.16-.16,2.41-5.92h.16v5.92l.17.16h1.81ZM163.6,25l-.17-.17h-1.81l-.16.17v6.4c0,1.54-.6,2.41-2.14,2.41s-2.13-.93-2.13-2.41V25l-.17-.17h-1.81l-.16.17v6.4c0,2.74,1.53,4.28,4.27,4.28s4.28-1.54,4.28-4.28V25Zm11.88,7.44c0-2.13-1.7-3-3.78-3.34s-2.74-.6-2.74-1.53c0-.6.44-1,1.81-1,1.7,0,2.14.44,2.14,1.37l.16.16h1.81l.16-.16c0-1.81-1.2-3.18-4.11-3.18s-4.1,1.37-4.1,2.9c0,2.14,1.69,2.91,3.83,3.18s2.74.6,2.74,1.64-.77,1.37-2.14,1.37c-1.8,0-2.41-.6-2.41-1.69l-.16-.17h-1.81l-.16.17c0,2,1.37,3.5,4.38,3.5,3.18,0,4.38-1.53,4.38-3.18m10.46,2.91V33.8l-.16-.16h-5l-.17-.16V31.07l.17-.17h4.71l.16-.16V29.2l-.16-.16h-4.71l-.17-.17V26.74l.17-.17h5l.16-.16V24.88l-.16-.17h-7.12l-.17.17V35.34l.17.16h7.12ZM197.83,25l-.17-.17h-1.8l-.17.17v6.4c0,1.54-.6,2.41-2.13,2.41s-2.14-.93-2.14-2.41V25l-.16-.17h-1.81l-.17.17v6.4c0,2.74,1.54,4.28,4.28,4.28s4.27-1.54,4.27-4.28V25Z"/><path class="cls-2" d="M86.93,66.68h5.85l.37-.36-3.09-8.26H89.7l-3.09,8.26Zm7.21,4.13H85.57l-.69.37-1.72,4.44-.36.32H79.71l-.36-.32V72.17l7.89-19.92.37-.32h4.45l.36.32L100,71.31V.36L99.64,0H.36L0,.32V97.91l.32.37H99.59l.36-.37v-22H96.87l-.37-.32-1.72-4.44ZM57.74,52.25l.36-.32h11c3.45,0,6.85,1.72,6.85,6.17,0,2.41-1,4.45-3.45,5.18v.32c2.77.68,4.13,2.76,4.13,5.85,0,4.81-3.45,6.54-6.85,6.54H58.1l-.36-.32ZM40.22,46.07l-.37.37H35.72l-.31-.37V32.68H35L29.55,46.07l-.36.37H25.42l-.36-.37-5.5-13.39H19.2V46.07l-.32.37H14.75l-.36-.37V22.7l.36-.32h5.13l.37.32L27.1,39.54h.36l6.9-16.84.32-.32h5.13l.36.32V46.07Zm24.74,0-.37.37H61.51l-.37-.37-1.72-4.44-.68-.32H50.16l-.68.32-1.73,4.44-.31.37H44.35L44,46.07V42.62L51.88,22.7l.37-.32H56.7l.36.32L65,42.62Zm13.75.68C71.13,46.75,67,41.63,67,34.41s4.14-12.35,11.67-12.35c5.49,0,9.26,2.72,9.94,7.22l-.32.36H84.2l-.31-.36c-.69-2-2.41-3.09-5.18-3.09-4.81,0-6.85,3.45-6.85,8.26s2,8.26,6.85,8.26c2.77,0,4.45-1,5.18-3.45l.31-.36h4.13l.32.36C88,44,84.2,46.75,78.71,46.75M57.38,37.13l.36-.32-3.09-8.26h-.36L51.2,36.81l.37.32Zm5.49,18.93-.36.36v4.81l.36.37h5.54a2.51,2.51,0,0,0,2.72-2.77c0-1.73-.68-2.72-2.72-2.72H62.87Zm0,9.58-.36.36v5.49l.36.32h5.54c2.4,0,3.45-1,3.45-3.09s-1-3.08-3.45-3.08Z"/></svg>